<?xml version="1.0" encoding="UTF-8"?>
<svg width="241px" height="127px" viewBox="0 0 241 127" version="1.1" xmlns="http://www.w3.org/2000/svg" xmlns:xlink="http://www.w3.org/1999/xlink">
    <!-- Generator: Sketch 60.1 (88133) - https://sketch.com -->
    <title>Page</title>
    <desc>Created with Sketch.</desc>
    <g id="Page" stroke="none" stroke-width="1" fill="none" fill-rule="evenodd">
        <rect id="Rectangle" fill="#EDF0F7" x="0" y="0" width="241" height="127"></rect>
        <rect id="Rectangle" fill="#3B5998" x="0" y="0" width="241" height="18"></rect>
        <path d="M25.0654176,14.8749979 L25.0654176,10.710293 L23.3427655,10.710293 L23.3427655,8.75001252 L25.0654176,8.75001252 L25.0654176,7.25596319 C25.0654176,5.5565425 26.0771339,4.61783166 27.6266984,4.61783166 C28.3687964,4.61783166 29.1448337,4.75017083 29.1448337,4.75017083 L29.1448337,6.4181356 L28.2897828,6.4181356 C27.4473356,6.4181356 27.1845532,6.94095006 27.1845532,7.47716933 L27.1845532,8.75001252 L29.0652593,8.75001252 L28.7644788,10.710293 L27.1845532,10.710293 L27.1845532,14.8749979 L30.9374739,14.8749979 C31.6619748,14.8749979 32.2499708,14.2870019 32.2499708,13.562501 L32.2499708,3.93752399 C32.2499708,3.21302315 31.6619748,2.62502712 30.9374739,2.62502712 L21.3124969,2.62502712 C20.587996,2.62502712 20,3.21302315 20,3.93752399 L20,13.562501 C20,14.2870019 20.587996,14.8749979 21.3124969,14.8749979 L25.0654176,14.8749979 Z" id="f" fill="#FFFFFF" fill-rule="nonzero"></path>
        <rect id="Rectangle-Copy-2" fill="#FFFFFF" x="83" y="18" width="138" height="109"></rect>
        <rect id="Rectangle" fill="#EBFFF1" x="83" y="35" width="138" height="75"></rect>
        <path d="M155.36818,71.8695985 C156.211953,72.3754374 156.209259,73.6222514 155.36818,74.1280904 L145.939349,79.8153608 C145.090214,80.3293972 144,79.7114641 144,78.6861149 L144,67.3088504 C144,66.1659064 145.173241,65.7175031 145.939349,66.1795778 L155.36818,71.8695985 Z" id="p" fill="#28BF6C" fill-rule="nonzero"></path>
        <rect id="Rectangle" fill="#FFFFFF" x="20" y="18" width="50" height="109"></rect>
        <circle id="Oval" stroke="#EDF0F7" stroke-width="2" fill="#EDF0F7" cx="44.5" cy="42.5" r="17.5"></circle>
        <circle id="Oval-Copy" stroke="#EDF0F7" stroke-width="2" fill="#EDF0F7" cx="91.5" cy="25.5" r="2.5"></circle>
        <rect id="Rectangle" fill="#EDF0F7" x="28" y="66" width="34" height="5" rx="1"></rect>
        <rect id="Rectangle-Copy" fill="#EDF0F7" x="99" y="24" width="34" height="3" rx="1"></rect>
    </g>
</svg>