<?xml version="1.0" encoding="UTF-8"?>
<svg width="241px" height="127px" viewBox="0 0 241 127" version="1.1" xmlns="http://www.w3.org/2000/svg" xmlns:xlink="http://www.w3.org/1999/xlink">
    <!-- Generator: Sketch 60.1 (88133) - https://sketch.com -->
    <title>Feed</title>
    <desc>Created with Sketch.</desc>
    <g id="Feed" stroke="none" stroke-width="1" fill="none" fill-rule="evenodd">
        <g id="Fe">
            <rect id="Rectangle" fill="#EDF0F7" x="0" y="0" width="241" height="127"></rect>
            <rect id="Rectangle" fill="#3B5998" x="0" y="0" width="241" height="18"></rect>
            <rect id="Rectangle-Copy-2" fill="#FFFFFF" x="53" y="21" width="138" height="57"></rect>
            <rect id="Rectangle-Copy-2" fill="#FFFFFF" x="177" y="81" width="51" height="46"></rect>
            <rect id="Rectangle" fill="#F5F9FF" x="60" y="44" width="42" height="23"></rect>
            <rect id="Rectangle-Copy-3" fill="#F5F9FF" x="199" y="103" width="26" height="14"></rect>
            <path d="M82.4236933,54.3995651 C82.2711147,54.2408898 82.0995359,54.1136978 81.9165323,54.0181895 C81.8520116,53.9845042 81.7738388,53.9986875 81.7228051,54.0517747 L81.6612127,54.1158282 C81.5412863,54.2405609 81.4717337,54.3981354 81.452651,54.5609714 C81.4439071,54.6355908 81.4799277,54.7090379 81.5450121,54.7417366 C81.6443573,54.7916783 81.788247,54.8981244 81.8661998,54.979335 C82.3276476,55.4592215 82.326809,56.2394017 81.8661998,56.7185161 L80.8076497,57.819507 C80.3443733,58.3009948 79.596576,58.2990646 79.1351556,57.819507 C78.672168,57.3377046 78.674024,56.5600266 79.1351556,56.080183 L79.7806382,55.4090654 C79.8218831,55.3661724 79.8393159,55.304092 79.8257051,55.2451141 C79.7910044,55.094374 79.7610743,54.8462525 79.7588884,54.6912802 C79.7567161,54.5368798 79.5755548,54.4622318 79.4704903,54.5713372 L78.5777997,55.5003988 L78.5777997,55.5003988 C77.8072351,56.301768 77.8075651,57.5984223 78.5777997,58.3991339 C79.348213,59.2006461 80.5951285,59.1999312 81.3651569,58.3991339 L82.5123402,57.2005214 C82.5305643,57.1791415 82.5428663,57.1630381 82.5609562,57.1397393 C83.1892259,56.336354 83.1429766,55.1475755 82.4236933,54.3995651 Z M84.4221988,52.6008666 C85.1924331,53.401593 85.1927631,54.6982482 84.4222125,55.4996181 L83.5295222,56.4286803 L83.5295222,56.4286803 C83.4244577,56.5377858 83.2432965,56.4631377 83.2411243,56.3087372 C83.2389383,56.1537648 83.2090083,55.9056431 83.1743076,55.7549029 C83.1606968,55.695925 83.1781296,55.6338445 83.2193745,55.5909515 L83.864843,54.9198191 C84.3259745,54.4399752 84.3278305,53.6622966 83.864843,53.1804939 C83.4034229,52.7009359 82.6556258,52.6990057 82.1923496,53.1804939 L81.1337998,54.2814856 C80.6731908,54.7606003 80.6723521,55.540781 81.1337998,56.0206679 C81.2117526,56.1018786 81.3556422,56.2083247 81.4549874,56.2582665 C81.5200718,56.2909652 81.5560923,56.3644123 81.5473484,56.4390318 C81.5282658,56.6018679 81.4587269,56.7594568 81.3387868,56.8841753 L81.2771945,56.9482289 C81.2261333,57.0013018 81.1479743,57.0154994 81.0834673,56.9818141 C80.9004638,56.8863057 80.7288851,56.7591137 80.5763066,56.6004382 C79.8827121,55.8791419 79.8149361,54.7479985 80.37431,53.9477762 L80.4876597,53.7994814 C80.5579528,53.7170193 80.7163531,53.5560582 81.6348426,52.6008666 C82.4048707,51.8000686 83.6517858,51.7993537 84.4221988,52.6008666 Z" id="l" fill="#A9B0C9" fill-rule="nonzero"></path>
            <path d="M213.423693,109.399565 C213.271115,109.24089 213.099536,109.113698 212.916532,109.01819 C212.852012,108.984504 212.773839,108.998688 212.722805,109.051775 L212.661213,109.115828 C212.541286,109.240561 212.471734,109.398135 212.452651,109.560971 C212.443907,109.635591 212.479928,109.709038 212.545012,109.741737 C212.644357,109.791678 212.788247,109.898124 212.8662,109.979335 C213.327648,110.459222 213.326809,111.239402 212.8662,111.718516 L211.80765,112.819507 C211.344373,113.300995 210.596576,113.299065 210.135156,112.819507 C209.672168,112.337705 209.674024,111.560027 210.135156,111.080183 L210.780638,110.409065 C210.821883,110.366172 210.839316,110.304092 210.825705,110.245114 C210.791004,110.094374 210.761074,109.846252 210.758888,109.69128 C210.756716,109.53688 210.575555,109.462232 210.47049,109.571337 L209.5778,110.500399 L209.5778,110.500399 C208.807235,111.301768 208.807565,112.598422 209.5778,113.399134 C210.348213,114.200646 211.595129,114.199931 212.365157,113.399134 L213.51234,112.200521 C213.530564,112.179141 213.542866,112.163038 213.560956,112.139739 C214.189226,111.336354 214.142977,110.147576 213.423693,109.399565 Z M215.422199,107.600867 C216.192433,108.401593 216.192763,109.698248 215.422213,110.499618 L214.529522,111.42868 L214.529522,111.42868 C214.424458,111.537786 214.243296,111.463138 214.241124,111.308737 C214.238938,111.153765 214.209008,110.905643 214.174308,110.754903 C214.160697,110.695925 214.17813,110.633845 214.219374,110.590952 L214.864843,109.919819 C215.325975,109.439975 215.327831,108.662297 214.864843,108.180494 C214.403423,107.700936 213.655626,107.699006 213.19235,108.180494 L212.1338,109.281486 C211.673191,109.7606 211.672352,110.540781 212.1338,111.020668 C212.211753,111.101879 212.355642,111.208325 212.454987,111.258266 C212.520072,111.290965 212.556092,111.364412 212.547348,111.439032 C212.528266,111.601868 212.458727,111.759457 212.338787,111.884175 L212.277194,111.948229 C212.226133,112.001302 212.147974,112.015499 212.083467,111.981814 C211.900464,111.886306 211.728885,111.759114 211.576307,111.600438 C210.882712,110.879142 210.814936,109.747998 211.37431,108.947776 L211.48766,108.799481 C211.557953,108.717019 211.716353,108.556058 212.634843,107.600867 C213.404871,106.800069 214.651786,106.799354 215.422199,107.600867 Z" id="l-copy" fill="#A9B0C9" fill-rule="nonzero"></path>
        </g>
        <circle id="Oval-Copy-3" stroke="#EDF0F7" stroke-width="2" fill="#EDF0F7" cx="62.5" cy="29.5" r="2.5"></circle>
        <circle id="Oval-Copy-4" stroke="#EDF0F7" stroke-width="2" fill="#EDF0F7" cx="183.5" cy="86.5" r="2.5"></circle>
        <rect id="Rectangle-Copy-5" fill="#EDF0F7" x="70" y="28" width="34" height="3" rx="1"></rect>
        <rect id="Rectangle-Copy-6" fill="#EDF0F7" x="191" y="85" width="34" height="3" rx="1"></rect>
        <path d="M30.0654176,14.8749979 L30.0654176,10.710293 L28.3427655,10.710293 L28.3427655,8.75001252 L30.0654176,8.75001252 L30.0654176,7.25596319 C30.0654176,5.5565425 31.0771339,4.61783166 32.6266984,4.61783166 C33.3687964,4.61783166 34.1448337,4.75017083 34.1448337,4.75017083 L34.1448337,6.4181356 L33.2897828,6.4181356 C32.4473356,6.4181356 32.1845532,6.94095006 32.1845532,7.47716933 L32.1845532,8.75001252 L34.0652593,8.75001252 L33.7644788,10.710293 L32.1845532,10.710293 L32.1845532,14.8749979 L35.9374739,14.8749979 C36.6619748,14.8749979 37.2499708,14.2870019 37.2499708,13.562501 L37.2499708,3.93752399 C37.2499708,3.21302315 36.6619748,2.62502712 35.9374739,2.62502712 L26.3124969,2.62502712 C25.587996,2.62502712 25,3.21302315 25,3.93752399 L25,13.562501 C25,14.2870019 25.587996,14.8749979 26.3124969,14.8749979 L30.0654176,14.8749979 Z" id="f" fill="#FFFFFF" fill-rule="nonzero"></path>
    </g>
</svg>