<svg width="139" height="123" xmlns="http://www.w3.org/2000/svg"><g fill="#D8D8D8" fill-rule="evenodd"><path d="M91.625 21c2.604 0 4.818.912 6.64 2.735 1.823 1.822 2.735 4.036 2.735 6.64v56.25c0 2.604-.912 4.818-2.735 6.64C96.443 95.09 94.23 96 91.625 96h-56.25c-2.604 0-4.818-.911-6.64-2.734C26.91 91.443 26 89.229 26 86.625v-56.25c0-2.604.911-4.818 2.734-6.64C30.557 21.912 32.771 21 35.375 21h56.25zm37.11 7.422c1.301-.911 2.733-1.27 4.296-1.074 1.562.195 2.865.846 3.906 1.953 1.042 1.107 1.563 2.441 1.563 4.004V83.5c0 1.693-.521 3.092-1.563 4.2-1.041 1.106-2.344 1.757-3.906 1.952-1.563.196-2.995-.162-4.297-1.074L107.25 73.93V43.07l21.484-14.648z"/><rect stroke="#F5F5F5" stroke-width="3" fill-rule="nonzero" transform="rotate(-45 61.518 61.518)" x="56.518" y="-20.482" width="10" height="164" rx="5"/></g></svg>
