<svg xmlns="http://www.w3.org/2000/svg" viewBox="0 0 250 180"><defs><style>.cls-1{fill:#f3f5fa;}.cls-2{fill:#dde1f0;}.cls-3{fill:#ebeeff;}.cls-4{fill:#46db83;}.cls-5{fill:#8f97ff;}.cls-6{fill:none;stroke:#2d3445;stroke-linecap:round;stroke-linejoin:round;stroke-width:2.52px;}</style></defs><title>no-comparable-data</title><g id="Layer_1" data-name="Layer 1"><path class="cls-1" d="M110.8,157a36.35,36.35,0,0,1-6.38-13.23,24.19,24.19,0,0,1,4.49-21.12A41.1,41.1,0,0,1,119.15,114c4-2.55,8.25-4.76,12.08-7.6a50.67,50.67,0,0,0,9.47-9.93c4.92-6.31,8.69-13.4,14-19.37a63.12,63.12,0,0,1,31.65-19.17A45.66,45.66,0,0,1,210,58c8.62,2.46,15.92,8.11,21.77,14.79a61.09,61.09,0,0,1,7.49,10.69c7.55,13.67,10.56,30.47,5.92,45.6-5.1,16.59-18.65,30.44-34.5,37.14-9.83,4.15-20.13,5.89-30.64,7.36-5.46.77-10.94,1.54-16.44,1.89-7.38.46-14.65-.65-21.94-1.69C129.46,172,118,166.43,110.8,157Z"/><path class="cls-2" d="M112.37,62.6c-.06-.26-.11-.52-.18-.77a1.15,1.15,0,0,0-.29.77Z"/><path class="cls-2" d="M110.21,58a1.18,1.18,0,0,0,.77-.29c-.24-.68-.5-1.35-.77-2V58Z"/><path class="cls-2" d="M113.41,73a1.14,1.14,0,0,0-.33,0,1.18,1.18,0,0,0-1.18,1.19h1.48C113.4,73.72,113.4,73.34,113.41,73Z"/><path class="cls-2" d="M110.21,69.53h0a1.19,1.19,0,0,0,0-2.37h0Z"/><path class="cls-2" d="M111.9,62.6a1.19,1.19,0,0,0,.71,1.09c-.07-.37-.16-.73-.24-1.09Z"/><path class="cls-2" d="M110.21,78.66h0V81h0a1.19,1.19,0,0,0,0-2.37Z"/><path class="cls-2" d="M111.9,74.1h0a1.18,1.18,0,0,0,1.18,1.18l.22,0c0-.39.06-.77.08-1.16Z"/><path class="cls-2" d="M106.15,51.11H108c-.22-.4-.45-.79-.68-1.18A1.18,1.18,0,0,0,106.15,51.11Z"/><path class="cls-2" d="M102.77,51.11a1.19,1.19,0,1,0-2.37,0Z"/><path class="cls-2" d="M104.46,46.54a1.3,1.3,0,0,0,.49-.1c-.46-.62-.93-1.21-1.42-1.8a1.14,1.14,0,0,0-.25.72A1.18,1.18,0,0,0,104.46,46.54Z"/><path class="cls-2" d="M98.71,46.54a1.19,1.19,0,1,0,0-2.37h0v2.37Z"/><path class="cls-2" d="M107.34,61.42a1.18,1.18,0,0,0-1.19,1.18h2.37A1.18,1.18,0,0,0,107.34,61.42Z"/><path class="cls-2" d="M101.59,61.42a1.18,1.18,0,0,0-1.19,1.18h2.37A1.18,1.18,0,0,0,101.59,61.42Z"/><path class="cls-2" d="M110.21,58v-2.3l0-.07a1.19,1.19,0,0,0,0,2.37Z"/><path class="cls-2" d="M104.46,58a1.19,1.19,0,1,0-1.18-1.19A1.19,1.19,0,0,0,104.46,58Z"/><path class="cls-2" d="M98.71,55.67h0V58h0a1.19,1.19,0,1,0,0-2.37Z"/><path class="cls-2" d="M106.15,51.11a1.18,1.18,0,0,0,1.19,1.18,1.17,1.17,0,0,0,1-.54l-.36-.64Z"/><path class="cls-2" d="M100.4,51.11a1.19,1.19,0,0,0,2.37,0H100.4Z"/><path class="cls-2" d="M107.34,72.91a1.19,1.19,0,0,0-1.19,1.19h2.37A1.18,1.18,0,0,0,107.34,72.91Z"/><path class="cls-2" d="M101.59,72.91a1.19,1.19,0,0,0-1.19,1.19h2.37A1.18,1.18,0,0,0,101.59,72.91Z"/><path class="cls-2" d="M109,68.35a1.19,1.19,0,0,0,1.19,1.18V67.16A1.19,1.19,0,0,0,109,68.35Z"/><path class="cls-2" d="M105.65,68.35a1.19,1.19,0,1,0-1.19,1.18A1.19,1.19,0,0,0,105.65,68.35Z"/><path class="cls-2" d="M98.71,67.16h0v2.37h0a1.19,1.19,0,1,0,0-2.37Z"/><path class="cls-2" d="M106.15,62.6a1.19,1.19,0,1,0,2.37,0h-2.37Z"/><path class="cls-2" d="M100.4,62.6a1.19,1.19,0,1,0,2.37,0H100.4Z"/><path class="cls-2" d="M107.34,84.41a1.18,1.18,0,0,0-1.19,1.18h2.37A1.18,1.18,0,0,0,107.34,84.41Z"/><path class="cls-2" d="M101.59,84.41a1.18,1.18,0,0,0-1.19,1.18h2.37A1.18,1.18,0,0,0,101.59,84.41Z"/><path class="cls-2" d="M109,79.84A1.19,1.19,0,0,0,110.21,81V78.66A1.19,1.19,0,0,0,109,79.84Z"/><path class="cls-2" d="M103.28,79.84a1.19,1.19,0,1,0,1.18-1.18A1.18,1.18,0,0,0,103.28,79.84Z"/><path class="cls-2" d="M98.71,78.66V81h0a1.19,1.19,0,1,0,0-2.37Z"/><path class="cls-2" d="M106.15,74.1a1.19,1.19,0,0,0,2.37,0h-2.37Z"/><path class="cls-2" d="M100.4,74.1a1.19,1.19,0,0,0,2.37,0H100.4Z"/><path class="cls-2" d="M101.59,95.9a1.19,1.19,0,0,0-1.19,1.19h2.37A1.18,1.18,0,0,0,101.59,95.9Z"/><path class="cls-2" d="M104.46,90.15a1.19,1.19,0,1,0,1.19,1.19A1.18,1.18,0,0,0,104.46,90.15Z"/><path class="cls-2" d="M98.71,92.52a1.19,1.19,0,1,0,0-2.37h0v2.37Z"/><path class="cls-2" d="M106.15,85.59a1.19,1.19,0,1,0,2.37,0h-2.37Z"/><path class="cls-2" d="M100.4,85.59a1.19,1.19,0,1,0,2.37,0H100.4Z"/><path class="cls-2" d="M98.71,104a1.19,1.19,0,1,0,0-2.37h0V104Z"/><path class="cls-2" d="M100.4,97.09a1.19,1.19,0,0,0,2.37,0H100.4Z"/><path class="cls-2" d="M95.84,38.43a1.18,1.18,0,0,0-1.18,1.18H97A1.18,1.18,0,0,0,95.84,38.43Z"/><path class="cls-2" d="M90.09,38.43a1.18,1.18,0,0,0-1.18,1.18h2.37A1.18,1.18,0,0,0,90.09,38.43Z"/><path class="cls-2" d="M87.22,32.68h0v2.37h0a1.19,1.19,0,0,0,0-2.37Z"/><path class="cls-2" d="M95.84,49.92a1.18,1.18,0,0,0-1.18,1.19H97A1.19,1.19,0,0,0,95.84,49.92Z"/><path class="cls-2" d="M90.09,49.92a1.18,1.18,0,0,0-1.18,1.19h2.37A1.19,1.19,0,0,0,90.09,49.92Z"/><path class="cls-2" d="M97.53,45.36a1.18,1.18,0,0,0,1.18,1.18V44.17A1.19,1.19,0,0,0,97.53,45.36Z"/><path class="cls-2" d="M94.15,45.36A1.19,1.19,0,1,0,93,46.54,1.19,1.19,0,0,0,94.15,45.36Z"/><path class="cls-2" d="M87.22,44.17h0v2.37h0a1.19,1.19,0,0,0,0-2.37Z"/><path class="cls-2" d="M94.66,39.61a1.19,1.19,0,1,0,2.37,0H94.66Z"/><path class="cls-2" d="M88.91,39.61a1.19,1.19,0,1,0,2.37,0H88.91Z"/><path class="cls-2" d="M95.84,61.42a1.18,1.18,0,0,0-1.18,1.18H97A1.18,1.18,0,0,0,95.84,61.42Z"/><path class="cls-2" d="M90.09,61.42a1.18,1.18,0,0,0-1.18,1.18h2.37A1.18,1.18,0,0,0,90.09,61.42Z"/><path class="cls-2" d="M97.53,56.85A1.18,1.18,0,0,0,98.71,58V55.67A1.18,1.18,0,0,0,97.53,56.85Z"/><path class="cls-2" d="M94.15,56.85A1.19,1.19,0,1,0,93,58,1.18,1.18,0,0,0,94.15,56.85Z"/><path class="cls-2" d="M87.22,55.67h0V58h0a1.19,1.19,0,0,0,0-2.37Z"/><path class="cls-2" d="M94.66,51.11a1.19,1.19,0,0,0,2.37,0H94.66Z"/><path class="cls-2" d="M88.91,51.11a1.19,1.19,0,0,0,2.37,0H88.91Z"/><path class="cls-2" d="M95.84,72.91a1.18,1.18,0,0,0-1.18,1.19H97A1.19,1.19,0,0,0,95.84,72.91Z"/><path class="cls-2" d="M90.09,72.91a1.18,1.18,0,0,0-1.18,1.19h2.37A1.19,1.19,0,0,0,90.09,72.91Z"/><path class="cls-2" d="M97.53,68.35a1.18,1.18,0,0,0,1.18,1.18V67.16A1.18,1.18,0,0,0,97.53,68.35Z"/><path class="cls-2" d="M94.15,68.35A1.19,1.19,0,1,0,93,69.53,1.18,1.18,0,0,0,94.15,68.35Z"/><path class="cls-2" d="M87.22,67.16h0v2.37h0a1.19,1.19,0,0,0,0-2.37Z"/><path class="cls-2" d="M94.66,62.6a1.19,1.19,0,1,0,2.37,0H94.66Z"/><path class="cls-2" d="M88.91,62.6a1.19,1.19,0,1,0,2.37,0H88.91Z"/><path class="cls-2" d="M95.84,84.41a1.18,1.18,0,0,0-1.18,1.18H97A1.18,1.18,0,0,0,95.84,84.41Z"/><path class="cls-2" d="M90.09,84.41a1.18,1.18,0,0,0-1.18,1.18h2.37A1.18,1.18,0,0,0,90.09,84.41Z"/><path class="cls-2" d="M97.53,79.84A1.18,1.18,0,0,0,98.71,81V78.66A1.18,1.18,0,0,0,97.53,79.84Z"/><path class="cls-2" d="M91.78,79.84A1.19,1.19,0,1,0,93,78.66,1.19,1.19,0,0,0,91.78,79.84Z"/><path class="cls-2" d="M87.22,78.66V81h0a1.19,1.19,0,0,0,0-2.37Z"/><path class="cls-2" d="M94.66,74.1a1.19,1.19,0,0,0,2.37,0H94.66Z"/><path class="cls-2" d="M88.91,74.1a1.19,1.19,0,0,0,2.37,0H88.91Z"/><path class="cls-2" d="M95.84,95.9a1.18,1.18,0,0,0-1.18,1.19H97A1.19,1.19,0,0,0,95.84,95.9Z"/><path class="cls-2" d="M90.09,95.9a1.18,1.18,0,0,0-1.18,1.19h2.37A1.19,1.19,0,0,0,90.09,95.9Z"/><path class="cls-2" d="M98.71,92.52V90.15a1.19,1.19,0,0,0,0,2.37Z"/><path class="cls-2" d="M91.78,91.34A1.19,1.19,0,1,0,93,90.15,1.18,1.18,0,0,0,91.78,91.34Z"/><path class="cls-2" d="M87.22,92.52a1.19,1.19,0,0,0,0-2.37h0v2.37Z"/><path class="cls-2" d="M94.66,85.59a1.19,1.19,0,1,0,2.37,0H94.66Z"/><path class="cls-2" d="M88.91,85.59a1.19,1.19,0,1,0,2.37,0H88.91Z"/><path class="cls-2" d="M90.09,107.4a1.18,1.18,0,0,0-1.18,1.18h2.37A1.18,1.18,0,0,0,90.09,107.4Z"/><path class="cls-2" d="M98.71,104v-2.37a1.19,1.19,0,0,0,0,2.37Z"/><path class="cls-2" d="M94.15,102.83A1.19,1.19,0,1,0,93,104,1.18,1.18,0,0,0,94.15,102.83Z"/><path class="cls-2" d="M87.22,104a1.19,1.19,0,0,0,0-2.37h0V104Z"/><path class="cls-2" d="M94.66,97.09a1.19,1.19,0,0,0,2.37,0H94.66Z"/><path class="cls-2" d="M88.91,97.09a1.19,1.19,0,0,0,2.37,0H88.91Z"/><path class="cls-2" d="M88.91,108.58a1.19,1.19,0,0,0,2.37,0H88.91Z"/><path class="cls-2" d="M84.35,38.43a1.18,1.18,0,0,0-1.19,1.18h2.37A1.18,1.18,0,0,0,84.35,38.43Z"/><path class="cls-2" d="M78.6,38.43a1.18,1.18,0,0,0-1.19,1.18h2.37A1.18,1.18,0,0,0,78.6,38.43Z"/><path class="cls-2" d="M86,33.86a1.18,1.18,0,0,0,1.18,1.19V32.68A1.18,1.18,0,0,0,86,33.86Z"/><path class="cls-2" d="M82.66,33.86a1.19,1.19,0,1,0-1.19,1.19A1.18,1.18,0,0,0,82.66,33.86Z"/><path class="cls-2" d="M75.73,32.68h0v2.37h0a1.19,1.19,0,0,0,0-2.37Z"/><path class="cls-2" d="M84.35,49.92a1.19,1.19,0,0,0-1.19,1.19h2.37A1.18,1.18,0,0,0,84.35,49.92Z"/><path class="cls-2" d="M78.6,49.92a1.19,1.19,0,0,0-1.19,1.19h2.37A1.18,1.18,0,0,0,78.6,49.92Z"/><path class="cls-2" d="M86,45.36a1.18,1.18,0,0,0,1.18,1.18V44.17A1.19,1.19,0,0,0,86,45.36Z"/><path class="cls-2" d="M82.66,45.36a1.19,1.19,0,1,0-1.19,1.18A1.19,1.19,0,0,0,82.66,45.36Z"/><path class="cls-2" d="M75.73,44.17h0v2.37h0a1.19,1.19,0,0,0,0-2.37Z"/><path class="cls-2" d="M83.16,39.61a1.19,1.19,0,1,0,2.37,0H83.16Z"/><path class="cls-2" d="M77.41,39.61a1.19,1.19,0,1,0,2.37,0H77.41Z"/><path class="cls-2" d="M84.35,61.42a1.18,1.18,0,0,0-1.19,1.18h2.37A1.18,1.18,0,0,0,84.35,61.42Z"/><path class="cls-2" d="M78.6,61.42a1.18,1.18,0,0,0-1.19,1.18h2.37A1.18,1.18,0,0,0,78.6,61.42Z"/><path class="cls-2" d="M86,56.85A1.18,1.18,0,0,0,87.22,58V55.67A1.18,1.18,0,0,0,86,56.85Z"/><path class="cls-2" d="M82.66,56.85A1.19,1.19,0,1,0,81.47,58,1.18,1.18,0,0,0,82.66,56.85Z"/><path class="cls-2" d="M75.73,55.67h0V58h0a1.19,1.19,0,0,0,0-2.37Z"/><path class="cls-2" d="M83.16,51.11a1.19,1.19,0,0,0,2.37,0H83.16Z"/><path class="cls-2" d="M77.41,51.11a1.19,1.19,0,0,0,2.37,0H77.41Z"/><path class="cls-2" d="M84.35,72.91a1.19,1.19,0,0,0-1.19,1.19h2.37A1.18,1.18,0,0,0,84.35,72.91Z"/><path class="cls-2" d="M78.6,72.91a1.19,1.19,0,0,0-1.19,1.19h2.37A1.18,1.18,0,0,0,78.6,72.91Z"/><path class="cls-2" d="M86,68.35a1.18,1.18,0,0,0,1.18,1.18V67.16A1.18,1.18,0,0,0,86,68.35Z"/><path class="cls-2" d="M82.66,68.35a1.19,1.19,0,1,0-1.19,1.18A1.19,1.19,0,0,0,82.66,68.35Z"/><path class="cls-2" d="M75.73,67.16h0v2.37h0a1.19,1.19,0,0,0,0-2.37Z"/><path class="cls-2" d="M83.16,62.6a1.19,1.19,0,1,0,2.37,0H83.16Z"/><path class="cls-2" d="M77.41,62.6a1.19,1.19,0,1,0,2.37,0H77.41Z"/><path class="cls-2" d="M84.35,84.41a1.18,1.18,0,0,0-1.19,1.18h2.37A1.18,1.18,0,0,0,84.35,84.41Z"/><path class="cls-2" d="M78.6,84.41a1.18,1.18,0,0,0-1.19,1.18h2.37A1.18,1.18,0,0,0,78.6,84.41Z"/><path class="cls-2" d="M86,79.84A1.18,1.18,0,0,0,87.22,81V78.66A1.18,1.18,0,0,0,86,79.84Z"/><path class="cls-2" d="M80.29,79.84a1.19,1.19,0,1,0,1.18-1.18A1.18,1.18,0,0,0,80.29,79.84Z"/><path class="cls-2" d="M75.73,78.66V81h0a1.19,1.19,0,0,0,0-2.37Z"/><path class="cls-2" d="M83.16,74.1a1.19,1.19,0,0,0,2.37,0H83.16Z"/><path class="cls-2" d="M77.41,74.1a1.19,1.19,0,0,0,2.37,0H77.41Z"/><path class="cls-2" d="M84.35,95.9a1.19,1.19,0,0,0-1.19,1.19h2.37A1.18,1.18,0,0,0,84.35,95.9Z"/><path class="cls-2" d="M78.6,95.9a1.19,1.19,0,0,0-1.19,1.19h2.37A1.18,1.18,0,0,0,78.6,95.9Z"/><path class="cls-2" d="M87.22,92.52V90.15a1.19,1.19,0,0,0,0,2.37Z"/><path class="cls-2" d="M80.29,91.34a1.19,1.19,0,1,0,1.18-1.19A1.18,1.18,0,0,0,80.29,91.34Z"/><path class="cls-2" d="M75.73,92.52a1.19,1.19,0,0,0,0-2.37h0v2.37Z"/><path class="cls-2" d="M83.16,85.59a1.19,1.19,0,1,0,2.37,0H83.16Z"/><path class="cls-2" d="M77.41,85.59a1.19,1.19,0,1,0,2.37,0H77.41Z"/><path class="cls-2" d="M84.35,107.4a1.18,1.18,0,0,0-1.19,1.18h2.37A1.18,1.18,0,0,0,84.35,107.4Z"/><path class="cls-2" d="M78.6,107.4a1.18,1.18,0,0,0-1.19,1.18h2.37A1.18,1.18,0,0,0,78.6,107.4Z"/><path class="cls-2" d="M87.22,104v-2.37a1.19,1.19,0,0,0,0,2.37Z"/><path class="cls-2" d="M80.29,102.83a1.19,1.19,0,1,0,1.18-1.18A1.18,1.18,0,0,0,80.29,102.83Z"/><path class="cls-2" d="M75.73,104a1.19,1.19,0,0,0,0-2.37h0V104Z"/><path class="cls-2" d="M83.16,97.09a1.19,1.19,0,0,0,2.37,0H83.16Z"/><path class="cls-2" d="M77.41,97.09a1.19,1.19,0,0,0,2.37,0H77.41Z"/><path class="cls-2" d="M80.38,113.87c.61-.15,1.22-.31,1.82-.48a1.24,1.24,0,0,0-.73-.25A1.18,1.18,0,0,0,80.38,113.87Z"/><path class="cls-2" d="M75.73,113.14h0v1.56l1.16-.15a1.64,1.64,0,0,0,0-.22A1.18,1.18,0,0,0,75.73,113.14Z"/><path class="cls-2" d="M83.16,108.58a1.19,1.19,0,0,0,2.37,0H83.16Z"/><path class="cls-2" d="M77.41,108.58a1.19,1.19,0,0,0,2.37,0H77.41Z"/><path class="cls-2" d="M72.85,38.43a1.18,1.18,0,0,0-1.18,1.18H74A1.18,1.18,0,0,0,72.85,38.43Z"/><path class="cls-2" d="M65.92,39.61h2.37a1.19,1.19,0,0,0-2.37,0Z"/><path class="cls-2" d="M74.54,33.86a1.19,1.19,0,0,0,1.19,1.19V32.68A1.18,1.18,0,0,0,74.54,33.86Z"/><path class="cls-2" d="M71.16,33.86A1.19,1.19,0,1,0,70,35.05,1.18,1.18,0,0,0,71.16,33.86Z"/><path class="cls-2" d="M64.23,32.68h0v2.37h0a1.19,1.19,0,1,0,0-2.37Z"/><path class="cls-2" d="M72.85,29.3a1.27,1.27,0,0,0,.44-.08l-1-.06A1.09,1.09,0,0,0,72.85,29.3Z"/><path class="cls-2" d="M67.49,29.23l-.62.05.23,0A1.23,1.23,0,0,0,67.49,29.23Z"/><path class="cls-2" d="M72.85,49.92a1.18,1.18,0,0,0-1.18,1.19H74A1.19,1.19,0,0,0,72.85,49.92Z"/><path class="cls-2" d="M67.1,49.92a1.18,1.18,0,0,0-1.18,1.19h2.37A1.19,1.19,0,0,0,67.1,49.92Z"/><path class="cls-2" d="M74.54,45.36a1.18,1.18,0,0,0,1.19,1.18V44.17A1.19,1.19,0,0,0,74.54,45.36Z"/><path class="cls-2" d="M70,46.54a1.19,1.19,0,1,0-1.19-1.18A1.18,1.18,0,0,0,70,46.54Z"/><path class="cls-2" d="M64.23,44.17h0v2.37h0a1.19,1.19,0,1,0,0-2.37Z"/><path class="cls-2" d="M71.67,39.61a1.19,1.19,0,1,0,2.37,0H71.67Z"/><path class="cls-2" d="M65.92,39.61a1.19,1.19,0,1,0,2.37,0H65.92Z"/><path class="cls-2" d="M72.85,61.42a1.18,1.18,0,0,0-1.18,1.18H74A1.18,1.18,0,0,0,72.85,61.42Z"/><path class="cls-2" d="M67.1,61.42a1.18,1.18,0,0,0-1.18,1.18h2.37A1.18,1.18,0,0,0,67.1,61.42Z"/><path class="cls-2" d="M74.54,56.85A1.19,1.19,0,0,0,75.73,58V55.67A1.18,1.18,0,0,0,74.54,56.85Z"/><path class="cls-2" d="M71.16,56.85A1.19,1.19,0,1,0,70,58,1.18,1.18,0,0,0,71.16,56.85Z"/><path class="cls-2" d="M64.23,55.67h0V58h0a1.19,1.19,0,1,0,0-2.37Z"/><path class="cls-2" d="M71.67,51.11a1.19,1.19,0,0,0,2.37,0H71.67Z"/><path class="cls-2" d="M65.92,51.11a1.19,1.19,0,0,0,2.37,0H65.92Z"/><path class="cls-2" d="M72.85,72.91a1.18,1.18,0,0,0-1.18,1.19H74A1.19,1.19,0,0,0,72.85,72.91Z"/><path class="cls-2" d="M67.1,72.91a1.18,1.18,0,0,0-1.18,1.19h2.37A1.19,1.19,0,0,0,67.1,72.91Z"/><path class="cls-2" d="M74.54,68.35a1.18,1.18,0,0,0,1.19,1.18V67.16A1.19,1.19,0,0,0,74.54,68.35Z"/><path class="cls-2" d="M71.16,68.35A1.19,1.19,0,1,0,70,69.53,1.18,1.18,0,0,0,71.16,68.35Z"/><path class="cls-2" d="M64.23,67.16h0v2.37h0a1.19,1.19,0,1,0,0-2.37Z"/><path class="cls-2" d="M71.67,62.6a1.19,1.19,0,1,0,2.37,0H71.67Z"/><path class="cls-2" d="M65.92,62.6a1.19,1.19,0,1,0,2.37,0H65.92Z"/><path class="cls-2" d="M72.85,84.41a1.18,1.18,0,0,0-1.18,1.18H74A1.18,1.18,0,0,0,72.85,84.41Z"/><path class="cls-2" d="M67.1,84.41a1.18,1.18,0,0,0-1.18,1.18h2.37A1.18,1.18,0,0,0,67.1,84.41Z"/><path class="cls-2" d="M74.54,79.84A1.19,1.19,0,0,0,75.73,81V78.66A1.18,1.18,0,0,0,74.54,79.84Z"/><path class="cls-2" d="M68.79,79.84A1.19,1.19,0,1,0,70,78.66,1.19,1.19,0,0,0,68.79,79.84Z"/><path class="cls-2" d="M64.23,78.66V81h0a1.19,1.19,0,1,0,0-2.37Z"/><path class="cls-2" d="M71.67,74.1a1.19,1.19,0,0,0,2.37,0H71.67Z"/><path class="cls-2" d="M65.92,74.1a1.19,1.19,0,0,0,2.37,0H65.92Z"/><path class="cls-2" d="M72.85,95.9a1.18,1.18,0,0,0-1.18,1.19H74A1.19,1.19,0,0,0,72.85,95.9Z"/><path class="cls-2" d="M67.1,95.9a1.18,1.18,0,0,0-1.18,1.19h2.37A1.19,1.19,0,0,0,67.1,95.9Z"/><path class="cls-2" d="M75.73,92.52V90.15a1.19,1.19,0,1,0,0,2.37Z"/><path class="cls-2" d="M68.79,91.34A1.19,1.19,0,1,0,70,90.15,1.18,1.18,0,0,0,68.79,91.34Z"/><path class="cls-2" d="M64.23,92.52a1.19,1.19,0,1,0,0-2.37h0v2.37Z"/><path class="cls-2" d="M71.67,85.59a1.19,1.19,0,1,0,2.37,0H71.67Z"/><path class="cls-2" d="M65.92,85.59a1.19,1.19,0,1,0,2.37,0H65.92Z"/><path class="cls-2" d="M72.85,107.4a1.18,1.18,0,0,0-1.18,1.18H74A1.18,1.18,0,0,0,72.85,107.4Z"/><path class="cls-2" d="M67.1,107.4a1.18,1.18,0,0,0-1.18,1.18h2.37A1.18,1.18,0,0,0,67.1,107.4Z"/><path class="cls-2" d="M75.73,104v-2.37a1.19,1.19,0,1,0,0,2.37Z"/><path class="cls-2" d="M68.79,102.83A1.19,1.19,0,1,0,70,101.65,1.19,1.19,0,0,0,68.79,102.83Z"/><path class="cls-2" d="M64.23,104a1.19,1.19,0,1,0,0-2.37h0V104Z"/><path class="cls-2" d="M71.67,97.09a1.19,1.19,0,0,0,2.37,0H71.67Z"/><path class="cls-2" d="M65.92,97.09a1.19,1.19,0,0,0,2.37,0H65.92Z"/><path class="cls-2" d="M74.54,114.33a1.17,1.17,0,0,0,.11.49c.36,0,.72-.08,1.08-.12v-1.56A1.19,1.19,0,0,0,74.54,114.33Z"/><path class="cls-2" d="M70,113.14a1.19,1.19,0,0,0-1.19,1.19,1.25,1.25,0,0,0,.2.66c.5,0,1,0,1.49,0l.46,0a1.15,1.15,0,0,0,.22-.68A1.18,1.18,0,0,0,70,113.14Z"/><path class="cls-2" d="M64.23,113.14h0v1.43l1.12.14a1.22,1.22,0,0,0,.07-.38A1.19,1.19,0,0,0,64.23,113.14Z"/><path class="cls-2" d="M71.67,108.58a1.19,1.19,0,0,0,2.37,0H71.67Z"/><path class="cls-2" d="M65.92,108.58a1.19,1.19,0,0,0,2.37,0H65.92Z"/><path class="cls-2" d="M61.36,38.43a1.18,1.18,0,0,0-1.19,1.18h2.37A1.18,1.18,0,0,0,61.36,38.43Z"/><path class="cls-2" d="M55.61,38.43a1.18,1.18,0,0,0-1.18,1.18h2.36A1.18,1.18,0,0,0,55.61,38.43Z"/><path class="cls-2" d="M63.05,33.86a1.18,1.18,0,0,0,1.18,1.19V32.68A1.18,1.18,0,0,0,63.05,33.86Z"/><path class="cls-2" d="M59.67,33.86a1.19,1.19,0,1,0-1.19,1.19A1.18,1.18,0,0,0,59.67,33.86Z"/><path class="cls-2" d="M52.74,35.05h0a1.18,1.18,0,0,0,.42-2.29l-.42.19Z"/><path class="cls-2" d="M61.36,49.92a1.19,1.19,0,0,0-1.19,1.19h2.37A1.18,1.18,0,0,0,61.36,49.92Z"/><path class="cls-2" d="M55.61,49.92a1.18,1.18,0,0,0-1.18,1.19h2.36A1.18,1.18,0,0,0,55.61,49.92Z"/><path class="cls-2" d="M63.05,45.36a1.18,1.18,0,0,0,1.18,1.18V44.17A1.19,1.19,0,0,0,63.05,45.36Z"/><path class="cls-2" d="M59.67,45.36a1.19,1.19,0,1,0-1.19,1.18A1.19,1.19,0,0,0,59.67,45.36Z"/><path class="cls-2" d="M52.74,44.17h0v2.37h0a1.19,1.19,0,0,0,0-2.37Z"/><path class="cls-2" d="M60.17,39.61a1.19,1.19,0,1,0,2.37,0H60.17Z"/><path class="cls-2" d="M54.43,39.61a1.18,1.18,0,1,0,2.36,0H54.43Z"/><path class="cls-2" d="M61.36,61.42a1.18,1.18,0,0,0-1.19,1.18h2.37A1.18,1.18,0,0,0,61.36,61.42Z"/><path class="cls-2" d="M55.61,61.42a1.18,1.18,0,0,0-1.18,1.18h2.36A1.18,1.18,0,0,0,55.61,61.42Z"/><path class="cls-2" d="M63.05,56.85A1.18,1.18,0,0,0,64.23,58V55.67A1.18,1.18,0,0,0,63.05,56.85Z"/><path class="cls-2" d="M59.67,56.85A1.19,1.19,0,1,0,58.48,58,1.18,1.18,0,0,0,59.67,56.85Z"/><path class="cls-2" d="M52.74,55.67h0V58h0a1.19,1.19,0,0,0,0-2.37Z"/><path class="cls-2" d="M60.17,51.11a1.19,1.19,0,0,0,2.37,0H60.17Z"/><path class="cls-2" d="M54.43,51.11a1.18,1.18,0,0,0,2.36,0H54.43Z"/><path class="cls-2" d="M61.36,72.91a1.19,1.19,0,0,0-1.19,1.19h2.37A1.18,1.18,0,0,0,61.36,72.91Z"/><path class="cls-2" d="M55.61,72.91a1.18,1.18,0,0,0-1.18,1.19h2.36A1.18,1.18,0,0,0,55.61,72.91Z"/><path class="cls-2" d="M63.05,68.35a1.18,1.18,0,0,0,1.18,1.18V67.16A1.18,1.18,0,0,0,63.05,68.35Z"/><path class="cls-2" d="M59.67,68.35a1.19,1.19,0,1,0-1.19,1.18A1.19,1.19,0,0,0,59.67,68.35Z"/><path class="cls-2" d="M52.74,67.16h0v2.37h0a1.19,1.19,0,0,0,0-2.37Z"/><path class="cls-2" d="M60.17,62.6a1.19,1.19,0,1,0,2.37,0H60.17Z"/><path class="cls-2" d="M54.43,62.6a1.18,1.18,0,1,0,2.36,0H54.43Z"/><path class="cls-2" d="M61.36,84.41a1.18,1.18,0,0,0-1.19,1.18h2.37A1.18,1.18,0,0,0,61.36,84.41Z"/><path class="cls-2" d="M55.61,84.41a1.18,1.18,0,0,0-1.18,1.18h2.36A1.18,1.18,0,0,0,55.61,84.41Z"/><path class="cls-2" d="M63.05,79.84A1.18,1.18,0,0,0,64.23,81V78.66A1.18,1.18,0,0,0,63.05,79.84Z"/><path class="cls-2" d="M57.3,79.84a1.19,1.19,0,1,0,1.18-1.18A1.18,1.18,0,0,0,57.3,79.84Z"/><path class="cls-2" d="M52.74,78.66V81h0a1.19,1.19,0,0,0,0-2.37Z"/><path class="cls-2" d="M60.17,74.1a1.19,1.19,0,0,0,2.37,0H60.17Z"/><path class="cls-2" d="M54.43,74.1a1.18,1.18,0,0,0,2.36,0H54.43Z"/><path class="cls-2" d="M61.36,95.9a1.19,1.19,0,0,0-1.19,1.19h2.37A1.18,1.18,0,0,0,61.36,95.9Z"/><path class="cls-2" d="M55.61,95.9a1.18,1.18,0,0,0-1.18,1.19h2.36A1.18,1.18,0,0,0,55.61,95.9Z"/><path class="cls-2" d="M64.23,92.52V90.15a1.19,1.19,0,0,0,0,2.37Z"/><path class="cls-2" d="M57.3,91.34a1.19,1.19,0,1,0,1.18-1.19A1.18,1.18,0,0,0,57.3,91.34Z"/><path class="cls-2" d="M52.74,92.52a1.19,1.19,0,0,0,0-2.37h0v2.37Z"/><path class="cls-2" d="M60.17,85.59a1.19,1.19,0,1,0,2.37,0H60.17Z"/><path class="cls-2" d="M54.43,85.59a1.18,1.18,0,1,0,2.36,0H54.43Z"/><path class="cls-2" d="M61.36,107.4a1.18,1.18,0,0,0-1.19,1.18h2.37A1.18,1.18,0,0,0,61.36,107.4Z"/><path class="cls-2" d="M55.61,107.4a1.18,1.18,0,0,0-1.18,1.18h2.36A1.18,1.18,0,0,0,55.61,107.4Z"/><path class="cls-2" d="M64.23,104v-2.37a1.19,1.19,0,0,0,0,2.37Z"/><path class="cls-2" d="M57.3,102.83a1.19,1.19,0,1,0,1.18-1.18A1.18,1.18,0,0,0,57.3,102.83Z"/><path class="cls-2" d="M52.74,104a1.19,1.19,0,0,0,0-2.37h0V104Z"/><path class="cls-2" d="M60.17,97.09a1.19,1.19,0,0,0,2.37,0H60.17Z"/><path class="cls-2" d="M54.43,97.09a1.18,1.18,0,1,0,2.36,0H54.43Z"/><path class="cls-2" d="M63.05,114.33v0l1.18.2v-1.43A1.18,1.18,0,0,0,63.05,114.33Z"/><path class="cls-2" d="M58.48,113.14a1.16,1.16,0,0,0-.37.07c.42.13.85.25,1.28.36A1.18,1.18,0,0,0,58.48,113.14Z"/><path class="cls-2" d="M60.17,108.58a1.19,1.19,0,0,0,2.37,0H60.17Z"/><path class="cls-2" d="M54.43,108.58a1.18,1.18,0,0,0,2.36,0H54.43Z"/><path class="cls-2" d="M49.86,38.43a1.18,1.18,0,0,0-1.18,1.18h2.37A1.18,1.18,0,0,0,49.86,38.43Z"/><path class="cls-2" d="M45.3,39.61a1.18,1.18,0,0,0-1.19-1.18,1.26,1.26,0,0,0-.43.08l-.53.42a1.15,1.15,0,0,0-.22.68Z"/><path class="cls-2" d="M51.62,33.47a1.28,1.28,0,0,0-.07.39,1.19,1.19,0,0,0,1.19,1.19V33Z"/><path class="cls-2" d="M49.86,49.92a1.18,1.18,0,0,0-1.18,1.19h2.37A1.19,1.19,0,0,0,49.86,49.92Z"/><path class="cls-2" d="M44.11,49.92a1.18,1.18,0,0,0-1.18,1.19H45.3A1.19,1.19,0,0,0,44.11,49.92Z"/><path class="cls-2" d="M51.55,45.36a1.18,1.18,0,0,0,1.19,1.18V44.17A1.19,1.19,0,0,0,51.55,45.36Z"/><path class="cls-2" d="M47,46.54a1.19,1.19,0,1,0-1.19-1.18A1.18,1.18,0,0,0,47,46.54Z"/><path class="cls-2" d="M41.24,44.17h0v2.37h0a1.19,1.19,0,1,0,0-2.37Z"/><path class="cls-2" d="M48.68,39.61a1.19,1.19,0,1,0,2.37,0H48.68Z"/><path class="cls-2" d="M42.93,39.61a1.19,1.19,0,1,0,2.37,0H42.93Z"/><path class="cls-2" d="M49.86,61.42a1.18,1.18,0,0,0-1.18,1.18h2.37A1.18,1.18,0,0,0,49.86,61.42Z"/><path class="cls-2" d="M44.11,61.42a1.18,1.18,0,0,0-1.18,1.18H45.3A1.18,1.18,0,0,0,44.11,61.42Z"/><path class="cls-2" d="M51.55,56.85A1.19,1.19,0,0,0,52.74,58V55.67A1.18,1.18,0,0,0,51.55,56.85Z"/><path class="cls-2" d="M48.17,56.85A1.19,1.19,0,1,0,47,58,1.18,1.18,0,0,0,48.17,56.85Z"/><path class="cls-2" d="M41.24,55.67h0V58h0a1.19,1.19,0,1,0,0-2.37Z"/><path class="cls-2" d="M48.68,51.11a1.19,1.19,0,0,0,2.37,0H48.68Z"/><path class="cls-2" d="M42.93,51.11a1.19,1.19,0,0,0,2.37,0H42.93Z"/><path class="cls-2" d="M49.86,72.91a1.18,1.18,0,0,0-1.18,1.19h2.37A1.19,1.19,0,0,0,49.86,72.91Z"/><path class="cls-2" d="M44.11,72.91a1.18,1.18,0,0,0-1.18,1.19H45.3A1.19,1.19,0,0,0,44.11,72.91Z"/><path class="cls-2" d="M51.55,68.35a1.18,1.18,0,0,0,1.19,1.18V67.16A1.19,1.19,0,0,0,51.55,68.35Z"/><path class="cls-2" d="M48.17,68.35A1.19,1.19,0,1,0,47,69.53,1.18,1.18,0,0,0,48.17,68.35Z"/><path class="cls-2" d="M41.24,69.53a1.19,1.19,0,1,0,0-2.37h0v2.37Z"/><path class="cls-2" d="M48.68,62.6a1.19,1.19,0,1,0,2.37,0H48.68Z"/><path class="cls-2" d="M42.93,62.6a1.19,1.19,0,1,0,2.37,0H42.93Z"/><path class="cls-2" d="M49.86,84.41a1.18,1.18,0,0,0-1.18,1.18h2.37A1.18,1.18,0,0,0,49.86,84.41Z"/><path class="cls-2" d="M44.11,84.41a1.18,1.18,0,0,0-1.18,1.18H45.3A1.18,1.18,0,0,0,44.11,84.41Z"/><path class="cls-2" d="M51.55,79.84A1.19,1.19,0,0,0,52.74,81V78.66A1.18,1.18,0,0,0,51.55,79.84Z"/><path class="cls-2" d="M45.8,79.84A1.19,1.19,0,1,0,47,78.66,1.19,1.19,0,0,0,45.8,79.84Z"/><path class="cls-2" d="M41.24,78.66V81h0a1.19,1.19,0,1,0,0-2.37Z"/><path class="cls-2" d="M49.86,75.28a1.18,1.18,0,0,0,1.19-1.18H48.68A1.18,1.18,0,0,0,49.86,75.28Z"/><path class="cls-2" d="M42.93,74.1a1.19,1.19,0,0,0,2.37,0H42.93Z"/><path class="cls-2" d="M49.86,95.9a1.18,1.18,0,0,0-1.18,1.19h2.37A1.19,1.19,0,0,0,49.86,95.9Z"/><path class="cls-2" d="M44.11,95.9a1.18,1.18,0,0,0-1.18,1.19H45.3A1.19,1.19,0,0,0,44.11,95.9Z"/><path class="cls-2" d="M52.74,92.52V90.15a1.19,1.19,0,1,0,0,2.37Z"/><path class="cls-2" d="M45.8,91.34A1.19,1.19,0,1,0,47,90.15,1.18,1.18,0,0,0,45.8,91.34Z"/><path class="cls-2" d="M41.24,92.52a1.19,1.19,0,1,0,0-2.37h0v2.37Z"/><path class="cls-2" d="M49.86,86.78a1.19,1.19,0,0,0,1.19-1.19H48.68A1.18,1.18,0,0,0,49.86,86.78Z"/><path class="cls-2" d="M42.93,85.59a1.19,1.19,0,1,0,2.37,0H42.93Z"/><path class="cls-2" d="M49.86,107.4a1.18,1.18,0,0,0-1.18,1.18h2.37A1.18,1.18,0,0,0,49.86,107.4Z"/><path class="cls-2" d="M52.74,104v-2.37a1.19,1.19,0,1,0,0,2.37Z"/><path class="cls-2" d="M47,101.65a1.19,1.19,0,1,0,1.18,1.18A1.18,1.18,0,0,0,47,101.65Z"/><path class="cls-2" d="M42.43,102.83a1.18,1.18,0,0,0-1.19-1.18h0v1.88l.43.4A1.19,1.19,0,0,0,42.43,102.83Z"/><path class="cls-2" d="M49.86,98.27a1.18,1.18,0,0,0,1.19-1.18H48.68A1.18,1.18,0,0,0,49.86,98.27Z"/><path class="cls-2" d="M42.93,97.09a1.19,1.19,0,0,0,2.37,0H42.93Z"/><path class="cls-2" d="M51.05,108.58H48.68a1.16,1.16,0,0,0,.16.59c.34.2.68.4,1,.59A1.18,1.18,0,0,0,51.05,108.58Z"/><path class="cls-2" d="M38.37,49.92a1.19,1.19,0,0,0-1.19,1.19h2.37A1.18,1.18,0,0,0,38.37,49.92Z"/><path class="cls-2" d="M33.81,51.11a1.21,1.21,0,0,0-.34-.83c-.17.27-.32.55-.48.83Z"/><path class="cls-2" d="M40.06,45.36a1.18,1.18,0,0,0,1.18,1.18V44.17A1.19,1.19,0,0,0,40.06,45.36Z"/><path class="cls-2" d="M36.65,45.62c-.21.26-.42.52-.62.79A1.18,1.18,0,0,0,36.65,45.62Z"/><path class="cls-2" d="M38.37,61.42a1.18,1.18,0,0,0-1.19,1.18h2.37A1.18,1.18,0,0,0,38.37,61.42Z"/><path class="cls-2" d="M32.62,61.42a1.18,1.18,0,0,0-1.18,1.18h2.37A1.19,1.19,0,0,0,32.62,61.42Z"/><path class="cls-2" d="M40.06,56.85A1.18,1.18,0,0,0,41.24,58V55.67A1.18,1.18,0,0,0,40.06,56.85Z"/><path class="cls-2" d="M35.49,58a1.19,1.19,0,1,0-1.18-1.19A1.19,1.19,0,0,0,35.49,58Z"/><path class="cls-2" d="M30.93,56.85a1.18,1.18,0,0,0-.31-.79c-.26.65-.51,1.3-.73,2A1.17,1.17,0,0,0,30.93,56.85Z"/><path class="cls-2" d="M37.18,51.11a1.19,1.19,0,0,0,2.37,0H37.18Z"/><path class="cls-2" d="M32.37,52.26a1,1,0,0,0,.25,0,1.19,1.19,0,0,0,1.19-1.18H33C32.78,51.49,32.57,51.87,32.37,52.26Z"/><path class="cls-2" d="M38.37,72.91a1.19,1.19,0,0,0-1.19,1.19h2.37A1.18,1.18,0,0,0,38.37,72.91Z"/><path class="cls-2" d="M32.62,72.91a1.18,1.18,0,0,0-1.18,1.19h2.37A1.19,1.19,0,0,0,32.62,72.91Z"/><path class="cls-2" d="M41.24,69.53V67.16a1.19,1.19,0,0,0,0,2.37Z"/><path class="cls-2" d="M36.68,68.35a1.19,1.19,0,1,0-1.19,1.18A1.19,1.19,0,0,0,36.68,68.35Z"/><path class="cls-2" d="M29.75,69.53a1.19,1.19,0,0,0,0-2.37h0v2.37Z"/><path class="cls-2" d="M38.37,63.79a1.18,1.18,0,0,0,1.18-1.19H37.18A1.19,1.19,0,0,0,38.37,63.79Z"/><path class="cls-2" d="M31.44,62.6a1.19,1.19,0,1,0,2.37,0H31.44Z"/><path class="cls-2" d="M38.37,84.41a1.18,1.18,0,0,0-1.19,1.18h2.37A1.18,1.18,0,0,0,38.37,84.41Z"/><path class="cls-2" d="M32.62,84.41a1.18,1.18,0,0,0-1.18,1.18h2.37A1.2,1.2,0,0,0,32.62,84.41Z"/><path class="cls-2" d="M40.06,79.84A1.18,1.18,0,0,0,41.24,81V78.66A1.18,1.18,0,0,0,40.06,79.84Z"/><path class="cls-2" d="M34.31,79.84a1.19,1.19,0,1,0,1.18-1.18A1.18,1.18,0,0,0,34.31,79.84Z"/><path class="cls-2" d="M29.75,81a1.19,1.19,0,0,0,0-2.37h0V81Z"/><path class="cls-2" d="M37.18,74.1a1.19,1.19,0,0,0,2.37,0H37.18Z"/><path class="cls-2" d="M31.44,74.1a1.19,1.19,0,0,0,2.37,0H31.44Z"/><path class="cls-2" d="M38.37,95.9a1.19,1.19,0,0,0-1.19,1.19h2.37A1.18,1.18,0,0,0,38.37,95.9Z"/><path class="cls-2" d="M41.24,92.52V90.15a1.19,1.19,0,0,0,0,2.37Z"/><path class="cls-2" d="M36.68,91.34a1.19,1.19,0,1,0-1.19,1.18A1.19,1.19,0,0,0,36.68,91.34Z"/><path class="cls-2" d="M37.18,85.59a1.19,1.19,0,1,0,2.37,0H37.18Z"/><path class="cls-2" d="M31.44,85.59a1.19,1.19,0,1,0,2.37,0H31.44Z"/><path class="cls-2" d="M40.12,102.46c.37.37.74.72,1.12,1.07v-1.88A1.19,1.19,0,0,0,40.12,102.46Z"/><path class="cls-2" d="M37.18,97.09a1.19,1.19,0,0,0,2.37,0H37.18Z"/><path class="cls-2" d="M27.55,73.13c0,.32,0,.64,0,1h.49A1.16,1.16,0,0,0,27.55,73.13Z"/><path class="cls-2" d="M29.75,69.53V67.16a1.19,1.19,0,1,0,0,2.37Z"/><path class="cls-2" d="M29.75,78.66a1.19,1.19,0,1,0,0,2.37Z"/><path class="cls-2" d="M28.06,74.1h-.49l.06.9A1.18,1.18,0,0,0,28.06,74.1Z"/><path class="cls-3" d="M113.42,28.18a4.8,4.8,0,0,0,2.42-3.76c.11-2.2-1.38-7.4-5.47-6.88-3.54.45-7.44,3.09-6.6,7.15S110.09,29.73,113.42,28.18Z"/><path class="cls-3" d="M124.53,20.2a3.12,3.12,0,0,0,1.59.51,4.66,4.66,0,0,0,3-1.11,4,4,0,0,0,1.3-2.62,3.9,3.9,0,0,0-3.56-4.2A5,5,0,0,0,122.63,15a3.42,3.42,0,0,0-.22,3.4A4.41,4.41,0,0,0,124.53,20.2Z"/><path class="cls-3" d="M122.49,31.05a1.32,1.32,0,0,0,.7.22,2.08,2.08,0,0,0,1.32-.48,1.73,1.73,0,0,0-1-3,2.2,2.2,0,0,0-1.86,1,1.5,1.5,0,0,0-.09,1.49A1.94,1.94,0,0,0,122.49,31.05Z"/></g><g id="Enemy"><path class="cls-4" d="M191.67,31.67l-68,13.68,3.1,15.43c1.11,5.47,2.48,5.71,5.46,5.11,3.27-.65,6.42-6.69,12.93-4.67,3.57,1.12,6.41,5.66,7.33,10.66,1.09,5,.23,10.26-2.64,12.67-5.22,4.38-10.46,0-13.73.69-3,.6-4.15,1.35-3,6.82l4.26,21.18,20.34-4.08c5.47-1.1,6.22.08,6.82,3,.66,3.26-3.7,8.51.69,13.73,2.41,2.86,7.7,3.72,12.67,2.64,5-.92,9.55-3.76,10.66-7.33,2-6.51-4-9.67-4.67-12.93-.6-3-.36-4.35,5.11-5.45l16.4-3.3Z"/><path class="cls-5" d="M66.72,168l68-13.68-3.1-15.43c-1.1-5.48-2.48-5.72-5.46-5.12-3.26.66-6.42,6.7-12.93,4.67-3.57-1.11-6.41-5.65-7.33-10.66-1.09-5-.23-10.25,2.64-12.66,5.22-4.39,10.46,0,13.73-.69,3-.6,4.15-1.36,3-6.83l-4.26-21.18-20.34,4.09c-5.47,1.1-6.22-.08-6.82-3.06-.66-3.26,3.7-8.51-.69-13.72-2.41-2.86-7.7-3.73-12.67-2.64-5,.92-9.55,3.76-10.66,7.33-2,6.5,4,9.66,4.67,12.92.6,3,.36,4.36-5.11,5.46l-16.4,3.3Z"/><path class="cls-6" d="M179.07,35.79c-1.28.86-3.72,1.71-4.91.72-1.34-1.11-.73-3.28.16-4.78,3.23-5.4,8.69-9.09,14.3-11.94,9.27-4.7,19.59-7.58,30-7.32a46.36,46.36,0,0,1,23.65,7l0,0c3,4.48,3.29,9.54,2.53,14.9S243,41.47,241,46.5A116.2,116.2,0,0,0,226.12,45a38.36,38.36,0,0,0-14.61,2.33c-5,2-11.69,6.5-16.82,8.24-1.76.6-3.92,1.06-5.35-.11-2.93-2.4,1-8.27,15.71-18.26"/><path class="cls-6" d="M192.65,25.77a66.67,66.67,0,0,0-8.72,5.46,25.45,25.45,0,0,0-4.12,3.63,11.54,11.54,0,0,0-2.6,4.78,2.86,2.86,0,0,0,.12,2.06,2.23,2.23,0,0,0,2.06,1,6.2,6.2,0,0,0,2.27-.71c5.83-2.76,11-6.39,16.37-10.27-5.63,4.08-18.72,14.89-14.5,18.72,1.49,1.35,6.42-.83,7.72-2"/><path class="cls-6" d="M68,147.51c1.48-.19,4,.13,4.66,1.5.77,1.55-.6,3.16-2,4.07-5,3.27-11.26,4.1-17.37,4.12a64,64,0,0,1-29.58-6.69A48.78,48.78,0,0,1,5.29,134.17l0,.05c-1-5.21.74-9.68,3.48-14s4.28-5.42,8-8.88a122.6,122.6,0,0,0,12.69,7.79,39.21,39.21,0,0,0,13.94,4.33c5.27.48,12.93-.55,18.19.17,1.8.25,3.91.79,4.73,2.43,1.69,3.34-4.11,6.71-21,9"/><path class="cls-6" d="M52,150.28a63.94,63.94,0,0,0,9.89-.94A23.63,23.63,0,0,0,67,148a10.38,10.38,0,0,0,4.16-3,2.54,2.54,0,0,0,.68-1.82,2.34,2.34,0,0,0-1.46-1.73,6.24,6.24,0,0,0-2.3-.37c-6.27-.15-12.27.76-18.58,1.78,6.61-1.09,22.45-4.76,20.16-9.91-.81-1.82-6-2.07-7.67-1.59"/></g></svg>